<svg width="29" height="30" viewBox="0 0 29 30" fill="none" xmlns="http://www.w3.org/2000/svg">
<path d="M26.5832 20.7277V6.14312C26.5832 4.69312 25.399 3.61771 23.9611 3.73854H23.8886C21.3511 3.95604 17.4965 5.24896 15.3457 6.60229L15.1403 6.73521C14.7898 6.95271 14.2098 6.95271 13.8594 6.73521L13.5573 6.55396C11.4065 5.21271 7.564 3.93187 5.0265 3.72646C3.58859 3.60562 2.4165 4.69312 2.4165 6.13104V20.7277C2.4165 21.8877 3.359 22.9752 4.519 23.1202L4.86942 23.1685C7.4915 23.519 11.5394 24.8481 13.8594 26.1169L13.9078 26.141C14.234 26.3223 14.7536 26.3223 15.0678 26.141C17.3878 24.8602 21.4478 23.519 24.0819 23.1685L24.4807 23.1202C25.6407 22.9752 26.5832 21.8877 26.5832 20.7277Z" stroke="#8592A3" stroke-width="1.5" stroke-linecap="round" stroke-linejoin="round"/>
<path d="M14.5 7.13379V25.2588" stroke="#8592A3" stroke-width="1.5" stroke-linecap="round" stroke-linejoin="round"/>
<path d="M9.36475 10.7588H6.646" stroke="#8592A3" stroke-width="1.5" stroke-linecap="round" stroke-linejoin="round"/>
<path d="M10.271 14.3838H6.646" stroke="#8592A3" stroke-width="1.5" stroke-linecap="round" stroke-linejoin="round"/>
</svg>
