<svg width="18" height="18" viewBox="0 0 18 18" fill="none" xmlns="http://www.w3.org/2000/svg">
<g clip-path="url(#clip0_152_7603)">
<path d="M8.22754 1.5H6.72754C2.97754 1.5 1.47754 3 1.47754 6.75V11.25C1.47754 15 2.97754 16.5 6.72754 16.5H11.2275C14.9775 16.5 16.4775 15 16.4775 11.25V9.75" stroke="#F6551C" stroke-width="1.5" stroke-linecap="round" stroke-linejoin="round"/>
<path d="M16.4101 2.67017C15.4876 4.97267 13.1701 8.10767 11.2351 9.66017L10.0501 10.6052C9.90008 10.7177 9.75008 10.8077 9.57758 10.8752C9.57758 10.7627 9.57008 10.6502 9.55508 10.5302C9.48758 10.0277 9.26258 9.55517 8.85758 9.15767C8.44508 8.74517 7.95008 8.51267 7.44008 8.44517C7.32008 8.43767 7.20008 8.43017 7.08008 8.43767C7.14758 8.25017 7.24508 8.07767 7.37258 7.93517L8.31758 6.75017C9.87008 4.81517 13.0126 2.48267 15.3076 1.56017C15.6601 1.42517 16.0051 1.53017 16.2226 1.74767C16.4476 1.97267 16.5526 2.31767 16.4101 2.67017Z" stroke="#F6551C" stroke-width="1.5" stroke-linecap="round" stroke-linejoin="round"/>
<path d="M9.58507 10.8674C9.58507 11.5274 9.33007 12.1574 8.85757 12.6374C8.49007 13.0049 7.99507 13.2599 7.40257 13.3349L5.92507 13.4924C5.12257 13.5824 4.43257 12.8999 4.52257 12.0824L4.68007 10.6049C4.82257 9.29236 5.91757 8.45236 7.08757 8.42986C7.20757 8.42236 7.32757 8.42986 7.44757 8.43736C7.95757 8.50486 8.45257 8.73736 8.86507 9.14986C9.27007 9.55486 9.49507 10.0199 9.56257 10.5224C9.57757 10.6424 9.58507 10.7624 9.58507 10.8674Z" stroke="#F6551C" stroke-width="1.5" stroke-linecap="round" stroke-linejoin="round"/>
<path d="M11.865 8.98508C11.865 7.41758 10.5975 6.14258 9.02246 6.14258" stroke="#F6551C" stroke-width="1.5" stroke-linecap="round" stroke-linejoin="round"/>
</g>
<defs>
<clipPath id="clip0_152_7603">
<rect width="18" height="18" fill="white"/>
</clipPath>
</defs>
</svg>
