<svg width="29" height="30" viewBox="0 0 29 30" fill="none" xmlns="http://www.w3.org/2000/svg">
<path d="M16.9168 20.0267L12.1318 15.2417" stroke="#FFAB00" stroke-width="1.5" stroke-miterlimit="10" stroke-linecap="round" stroke-linejoin="round"/>
<path d="M16.8685 15.29L12.0835 20.075" stroke="#FFAB00" stroke-width="1.5" stroke-miterlimit="10" stroke-linecap="round" stroke-linejoin="round"/>
<path d="M12.0832 7.74984H16.9165C19.3332 7.74984 19.3332 6.5415 19.3332 5.33317C19.3332 2.9165 18.1248 2.9165 16.9165 2.9165H12.0832C10.8748 2.9165 9.6665 2.9165 9.6665 5.33317C9.6665 7.74984 10.8748 7.74984 12.0832 7.74984Z" stroke="#FFAB00" stroke-width="1.5" stroke-miterlimit="10" stroke-linecap="round" stroke-linejoin="round"/>
<path d="M19.3333 5.35742C23.3571 5.57492 25.375 7.06117 25.375 12.5833V19.8333C25.375 24.6666 24.1667 27.0833 18.125 27.0833H10.875C4.83333 27.0833 3.625 24.6666 3.625 19.8333V12.5833C3.625 7.07326 5.64292 5.57492 9.66667 5.35742" stroke="#FFAB00" stroke-width="1.5" stroke-miterlimit="10" stroke-linecap="round" stroke-linejoin="round"/>
</svg>
