<svg width="35" height="35" viewBox="0 0 35 35" fill="none" xmlns="http://www.w3.org/2000/svg">
<rect width="34.4" height="34.4" rx="8" fill="#FFE7E3"/>
<path d="M24.1339 21.8958C23.6732 21.485 23.2698 21.0142 22.9347 20.4959C22.5688 19.7804 22.3495 18.9991 22.2897 18.1978V15.8375C22.2929 14.5789 21.8363 13.3624 21.0058 12.4166C20.1753 11.4709 19.028 10.8609 17.7795 10.7014V10.0851C17.7795 9.91594 17.7123 9.7537 17.5927 9.63408C17.473 9.51447 17.3108 9.44727 17.1416 9.44727C16.9725 9.44727 16.8103 9.51447 16.6906 9.63408C16.571 9.7537 16.5038 9.91594 16.5038 10.0851V10.711C15.2665 10.882 14.1331 11.4956 13.3135 12.4382C12.4939 13.3808 12.0436 14.5885 12.0461 15.8375V18.1978C11.9863 18.9991 11.767 19.7804 11.4011 20.4959C11.0719 21.013 10.675 21.4838 10.221 21.8958C10.1701 21.9405 10.1292 21.9957 10.1012 22.0574C10.0732 22.1192 10.0587 22.1863 10.0586 22.2541V22.9039C10.0586 23.0306 10.1089 23.1521 10.1985 23.2417C10.2881 23.3313 10.4097 23.3817 10.5364 23.3817H23.8186C23.9453 23.3817 24.0668 23.3313 24.1564 23.2417C24.246 23.1521 24.2964 23.0306 24.2964 22.9039V22.2541C24.2963 22.1863 24.2818 22.1192 24.2537 22.0574C24.2257 21.9957 24.1849 21.9405 24.1339 21.8958ZM11.0524 22.4261C11.4969 21.9967 11.8883 21.5155 12.2181 20.9928C12.679 20.1287 12.9479 19.1753 13.0065 18.1978V15.8375C12.9875 15.2776 13.0815 14.7196 13.2827 14.1967C13.4839 13.6738 13.7882 13.1968 14.1776 12.794C14.567 12.3911 15.0335 12.0708 15.5493 11.8521C16.0651 11.6333 16.6196 11.5205 17.1799 11.5205C17.7401 11.5205 18.2947 11.6333 18.8104 11.8521C19.3262 12.0708 19.7927 12.3911 20.1821 12.794C20.5715 13.1968 20.8759 13.6738 21.0771 14.1967C21.2783 14.7196 21.3722 15.2776 21.3533 15.8375V18.1978C21.4118 19.1753 21.6807 20.1287 22.1416 20.9928C22.4715 21.5155 22.8628 21.9967 23.3074 22.4261H11.0524Z" fill="#FF3E1D"/>
<path d="M17.2023 24.978C17.5033 24.9711 17.7921 24.8579 18.0177 24.6586C18.2433 24.4592 18.3911 24.1865 18.435 23.8887H15.9219C15.967 24.1946 16.1217 24.4737 16.3573 24.6741C16.5928 24.8745 16.8931 24.9825 17.2023 24.978V24.978Z" fill="#FF3E1D"/>
<path d="M27.4709 9.07856C28.7903 9.07856 29.8598 8.00902 29.8598 6.68967C29.8598 5.37032 28.7903 4.30078 27.4709 4.30078C26.1516 4.30078 25.082 5.37032 25.082 6.68967C25.082 8.00902 26.1516 9.07856 27.4709 9.07856Z" fill="#FF3E1D"/>
</svg>
