<svg width="53" height="50" viewBox="0 0 53 50" fill="none" xmlns="http://www.w3.org/2000/svg">
<g filter="url(#filter0_d_525_7581)">
<rect x="4" width="45" height="42" rx="10" fill="#595CFE" shape-rendering="crispEdges"/>
<path d="M19 16C19 15.4469 19.4788 15 20.0714 15H32.9286C33.5212 15 34 15.4469 34 16C34 16.5531 33.5212 17 32.9286 17H20.0714C19.4788 17 19 16.5531 19 16ZM22.9286 21C22.9286 20.4469 23.4074 20 24 20H32.9286C33.5212 20 34 20.4469 34 21C34 21.5531 33.5212 22 32.9286 22H24C23.4074 22 22.9286 21.5531 22.9286 21ZM34 26C34 26.5531 33.5212 27 32.9286 27H20.0714C19.4788 27 19 26.5531 19 26C19 25.4469 19.4788 25 20.0714 25H32.9286C33.5212 25 34 25.4469 34 26Z" fill="white"/>
</g>
<defs>
<filter id="filter0_d_525_7581" x="0" y="0" width="53" height="50" filterUnits="userSpaceOnUse" color-interpolation-filters="sRGB">
<feFlood flood-opacity="0" result="BackgroundImageFix"/>
<feColorMatrix in="SourceAlpha" type="matrix" values="0 0 0 0 0 0 0 0 0 0 0 0 0 0 0 0 0 0 127 0" result="hardAlpha"/>
<feOffset dy="4"/>
<feGaussianBlur stdDeviation="2"/>
<feComposite in2="hardAlpha" operator="out"/>
<feColorMatrix type="matrix" values="0 0 0 0 0.772549 0 0 0 0 0.772549 0 0 0 0 0.827451 0 0 0 1 0"/>
<feBlend mode="normal" in2="BackgroundImageFix" result="effect1_dropShadow_525_7581"/>
<feBlend mode="normal" in="SourceGraphic" in2="effect1_dropShadow_525_7581" result="shape"/>
</filter>
</defs>
</svg>
