<svg width="35" height="35" viewBox="0 0 35 35" fill="none" xmlns="http://www.w3.org/2000/svg">
<rect width="34.4" height="34.4" rx="8" fill="#EEFBE7"/>
<path d="M27.4709 9.07856C28.7903 9.07856 29.8598 8.00902 29.8598 6.68967C29.8598 5.37032 28.7903 4.30078 27.4709 4.30078C26.1516 4.30078 25.082 5.37032 25.082 6.68967C25.082 8.00902 26.1516 9.07856 27.4709 9.07856Z" fill="#71DD37"/>
<path d="M16.4852 10.75H15.0518C11.4685 10.75 10.0352 12.1833 10.0352 15.7667V20.0667C10.0352 23.65 11.4685 25.0833 15.0518 25.0833H19.3518C22.9352 25.0833 24.3685 23.65 24.3685 20.0667V18.6333" stroke="#71DD37" stroke-width="1.5" stroke-linecap="round" stroke-linejoin="round"/>
<path d="M20.0959 11.4814L14.4486 17.1287C14.2336 17.3437 14.0186 17.7665 13.9756 18.0747L13.6674 20.2319C13.5528 21.013 14.1046 21.5577 14.8858 21.4502L17.0429 21.142C17.3439 21.099 17.7668 20.884 17.9889 20.669L23.6363 15.0217C24.6109 14.047 25.0696 12.9147 23.6363 11.4814C22.2029 10.048 21.0706 10.5067 20.0959 11.4814Z" stroke="#71DD37" stroke-width="1.5" stroke-miterlimit="10" stroke-linecap="round" stroke-linejoin="round"/>
<path d="M19.2852 12.291C19.7653 14.0038 21.1055 15.344 22.8255 15.8313" stroke="#71DD37" stroke-width="1.5" stroke-miterlimit="10" stroke-linecap="round" stroke-linejoin="round"/>
</svg>
