<svg width="25" height="24" viewBox="0 0 25 24" fill="none" xmlns="http://www.w3.org/2000/svg">
<path d="M24 13.2683C21.8605 13.2683 19.293 12.4943 17.7953 10.8356C15.8683 8.70145 16.1372 8.12131 12.5 8.12131C8.86279 8.12131 8.96171 8.49144 7.63256 10.0616C6.13488 11.8308 4.53023 13.2683 1 13.2683" stroke="#8592A3" stroke-width="1.5" stroke-linecap="round"/>
<path d="M14.7106 11.5V14.9381C14.7106 15.1358 14.8709 15.2961 15.0687 15.2961H20.6121C21.5055 15.2961 22.2299 16.0204 22.2299 16.9139V16.9139C22.2299 17.6139 21.7798 18.2344 21.1144 18.4518L7.19141 23" stroke="#8592A3" stroke-width="1.5" stroke-linecap="round"/>
<path d="M9.40264 11.5V14.9381C9.40264 15.1358 9.24234 15.2961 9.04459 15.2961H3.50122C2.60773 15.2961 1.88341 16.0204 1.88341 16.9139V16.9139C1.88341 17.6139 2.33352 18.2344 2.99886 18.4518L16.9219 23" stroke="#8592A3" stroke-width="1.5" stroke-linecap="round"/>
<circle cx="12.0571" cy="3.09615" r="2.34615" stroke="#8592A3" stroke-width="1.5"/>
</svg>
