<svg width="21" height="21" viewBox="0 0 21 21" fill="none" xmlns="http://www.w3.org/2000/svg">
<path d="M15.8287 9.17851L15.8319 9.2544L16.2154 9.45468L16.8086 9.76454L17.1042 10.0231L17.0599 10.1591L16.9304 10.5573L17.193 10.8666L2.0966 19.5826L1.02452 17.7257L15.8287 9.17851Z" stroke="#8592A3" stroke-width="1.5"/>
<rect x="1.94531" y="19.748" width="2.39848" height="3.46594" transform="rotate(-120 1.94531 19.748)" fill="#8592A3"/>
<path d="M16.0716 1H12.3363C11.7105 1 11.2031 1.50735 11.2031 2.13319V2.13319C11.2031 2.75903 11.7105 3.26638 12.3363 3.26638H18.2856C18.9114 3.26638 19.4188 3.77373 19.4188 4.39957V4.39957C19.4188 5.02541 18.9114 5.53276 18.2856 5.53276H18.2016C17.5294 5.53276 16.9845 6.07769 16.9845 6.74989V6.975" stroke="#8592A3" stroke-width="1.5" stroke-linecap="round"/>
</svg>
