<svg width="16" height="24" viewBox="0 0 16 24" fill="none" xmlns="http://www.w3.org/2000/svg">
<path d="M12.9453 5.60156V9.27385H3.24219V5.60157C3.24219 2.92212 5.41431 0.75 8.09375 0.75C10.7732 0.75 12.9453 2.92212 12.9453 5.60156Z" stroke="#8592A3" stroke-width="1.5"/>
<path d="M3.18317 9.74255L2.0419 11.6801C1.38785 12.7904 1.35915 14.1968 2.49069 14.8134C3.58276 15.4086 5.31905 15.9197 7.91338 15.9197C10.3798 15.9197 12.1654 15.4578 13.3716 14.9008C14.7286 14.2743 14.7868 12.6541 13.992 11.3882L12.95 9.72852" stroke="#8592A3" stroke-width="1.5" stroke-linecap="round"/>
<path d="M1 13.5625C0.999839 15.8298 1.52404 17.5188 3.49774 18.9829C4.01295 19.3651 4.36094 19.9472 4.36094 20.5887V20.5887C4.36094 21.5929 5.17507 22.4071 6.17935 22.4071H9.80864C10.7189 22.4071 11.4568 21.6692 11.4568 20.7589V20.7589C11.4568 20.0413 11.9367 19.4327 12.5625 19.0814C13.8576 18.3542 15.1906 16.8638 15.1906 13.5625" stroke="#8592A3" stroke-width="1.5" stroke-linecap="round"/>
<mask id="path-4-inside-1_32_7423" fill="white">
<ellipse cx="8.09609" cy="12.6772" rx="4.10781" ry="1.4741"/>
</mask>
<path d="M10.7039 12.6772C10.7039 12.2709 10.9377 12.0843 10.9107 12.1072C10.89 12.1247 10.7716 12.2081 10.4941 12.3077C9.95206 12.5022 9.10439 12.6513 8.09609 12.6513V15.6513C9.35648 15.6513 10.5627 15.4704 11.5074 15.1314C11.9733 14.9642 12.4564 14.73 12.8515 14.3948C13.2402 14.065 13.7039 13.4906 13.7039 12.6772H10.7039ZM8.09609 12.6513C7.0878 12.6513 6.24013 12.5022 5.69808 12.3077C5.42061 12.2081 5.30214 12.1247 5.28152 12.1072C5.25451 12.0843 5.48828 12.2709 5.48828 12.6772H2.48828C2.48828 13.4906 2.95194 14.065 3.34067 14.3948C3.73578 14.73 4.21888 14.9642 4.68479 15.1314C5.62947 15.4704 6.83571 15.6513 8.09609 15.6513V12.6513ZM5.48828 12.6772C5.48828 13.0835 5.25451 13.2701 5.28152 13.2472C5.30214 13.2297 5.42061 13.1463 5.69808 13.0467C6.24013 12.8522 7.0878 12.7031 8.09609 12.7031V9.70312C6.83571 9.70312 5.62947 9.88403 4.68479 10.223C4.21888 10.3902 3.73578 10.6244 3.34067 10.9596C2.95194 11.2894 2.48828 11.8639 2.48828 12.6772H5.48828ZM8.09609 12.7031C9.10439 12.7031 9.95206 12.8522 10.4941 13.0467C10.7716 13.1463 10.89 13.2297 10.9107 13.2472C10.9377 13.2701 10.7039 13.0835 10.7039 12.6772H13.7039C13.7039 11.8639 13.2402 11.2894 12.8515 10.9596C12.4564 10.6244 11.9733 10.3902 11.5074 10.223C10.5627 9.88403 9.35648 9.70312 8.09609 9.70312V12.7031Z" fill="#8592A3" mask="url(#path-4-inside-1_32_7423)"/>
</svg>
