<svg width="18" height="18" viewBox="0 0 18 18" fill="none" xmlns="http://www.w3.org/2000/svg">
<path d="M15.1566 5.78666L13.1519 3.78201C12.3882 3.01834 11.3541 3.06608 10.837 3.86953L9.72336 5.63547L13.3031 9.2152L15.069 8.10156C15.8327 7.62426 15.8725 6.50261 15.1566 5.78666Z" stroke="#8592A3" stroke-width="1.5" stroke-linecap="round" stroke-linejoin="round"/>
<path d="M9.71343 5.64263L7.11213 5.49152C5.65637 5.40402 5.14721 5.84953 4.98811 7.2337L4.33586 12.7385C4.20062 13.8919 5.0359 14.7272 6.18936 14.592L11.6941 13.9397C13.0783 13.7806 13.5795 13.2794 13.4363 11.8157L13.2852 9.21441" stroke="#8592A3" stroke-width="1.5" stroke-linecap="round" stroke-linejoin="round"/>
<path d="M5.09766 13.8359L7.11028 11.8233" stroke="#8592A3" stroke-width="1.5" stroke-linecap="round" stroke-linejoin="round"/>
<path d="M16.6782 16.5002L1.5 1.32227" stroke="#8592A3" stroke-width="1.5" stroke-linecap="round" stroke-linejoin="round"/>
</svg>
