<svg width="17" height="18" viewBox="0 0 17 18" fill="none" xmlns="http://www.w3.org/2000/svg">
<path fill-rule="evenodd" clip-rule="evenodd" d="M0 2.2C0 1.26112 0.761116 0.5 1.7 0.5H10.2C11.1389 0.5 11.9 1.26112 11.9 2.2V5.6H15.3C16.2389 5.6 17 6.36112 17 7.3V15.8C17 16.7389 16.2389 17.5 15.3 17.5H6.8C5.86112 17.5 5.1 16.7389 5.1 15.8V12.4H1.7C0.761115 12.4 0 11.6389 0 10.7V2.2ZM6.8 12.4V15.8H15.3V7.3H11.9V10.7C11.9 11.6389 11.1389 12.4 10.2 12.4H6.8ZM10.2 10.7H1.7V2.2L10.2 2.2V10.7Z" fill="#F6551C"/>
</svg>
