<svg width="19" height="20" viewBox="0 0 19 20" fill="none" xmlns="http://www.w3.org/2000/svg">
<path d="M12.6663 2.08301H6.33301C3.16634 2.08301 1.58301 3.66634 1.58301 6.83301V17.1247C1.58301 17.5601 1.93926 17.9163 2.37467 17.9163H12.6663C15.833 17.9163 17.4163 16.333 17.4163 13.1663V6.83301C17.4163 3.66634 15.833 2.08301 12.6663 2.08301Z" stroke="#F6551C" stroke-width="1.5" stroke-linecap="round" stroke-linejoin="round"/>
<path d="M10.2205 6.70703L6.1117 10.8158C5.95337 10.9741 5.80296 11.2829 5.77129 11.5045L5.54963 13.072C5.47046 13.642 5.86629 14.0379 6.43629 13.9587L8.00378 13.737C8.22544 13.7054 8.53421 13.5549 8.69255 13.3966L12.8013 9.28786C13.5059 8.58328 13.8463 7.75995 12.8013 6.71495C11.7563 5.66203 10.933 5.99453 10.2205 6.70703Z" stroke="#F6551C" stroke-width="1.5" stroke-miterlimit="10" stroke-linecap="round" stroke-linejoin="round"/>
<path d="M9.63477 7.29248C9.9831 8.5354 10.9568 9.51706 12.2077 9.8654" stroke="#F6551C" stroke-width="1.5" stroke-miterlimit="10" stroke-linecap="round" stroke-linejoin="round"/>
</svg>
