<svg width="23" height="23" viewBox="0 0 23 23" fill="none" xmlns="http://www.w3.org/2000/svg">
<path d="M10.3021 21.5635H12.7171C13.6371 21.5635 14.2313 20.9118 14.0588 20.1164L13.6659 18.3818H9.35336L8.96044 20.1164C8.78794 20.8639 9.43961 21.5635 10.3021 21.5635Z" stroke="#8592A3" stroke-width="1.5" stroke-linecap="round" stroke-linejoin="round"/>
<path d="M13.6657 18.3714L15.3236 16.8956C16.2532 16.0714 16.2915 15.4963 15.5536 14.5668L12.6307 10.8581C12.0174 10.0818 11.0111 10.0818 10.3978 10.8581L7.47487 14.5668C6.73695 15.4963 6.73695 16.1001 7.70487 16.8956L9.36278 18.3714" stroke="#8592A3" stroke-width="1.5" stroke-linecap="round" stroke-linejoin="round"/>
<path d="M11.5098 10.6567V13.0814" stroke="#8592A3" stroke-width="1.5" stroke-linecap="round" stroke-linejoin="round"/>
<path d="M10.6854 4.97371L9.93791 4.22618C9.48749 3.77576 9.48749 3.04748 9.93791 2.59706L10.6854 1.84953C11.1358 1.39911 11.8642 1.39911 12.3146 1.84953L13.0621 2.59706C13.5125 3.04748 13.5125 3.77576 13.0621 4.22618L12.3146 4.97371C11.8642 5.42412 11.1358 5.42412 10.6854 4.97371Z" stroke="#8592A3" stroke-width="1.5" stroke-linecap="round" stroke-linejoin="round"/>
<path d="M18.6397 9.40088H19.6939C20.3264 9.40088 20.8439 9.91839 20.8439 10.5509V11.605C20.8439 12.2375 20.3264 12.7551 19.6939 12.7551H18.6397C18.0072 12.7551 17.4897 12.2375 17.4897 11.605V10.5509C17.4897 9.91839 18.0072 9.40088 18.6397 9.40088Z" stroke="#8592A3" stroke-width="1.5" stroke-linecap="round" stroke-linejoin="round"/>
<path d="M4.36042 9.40088H3.30625C2.67375 9.40088 2.15625 9.91839 2.15625 10.5509V11.605C2.15625 12.2375 2.67375 12.7551 3.30625 12.7551H4.36042C4.99292 12.7551 5.51042 12.2375 5.51042 11.605V10.5509C5.51042 9.91839 4.99292 9.40088 4.36042 9.40088Z" stroke="#8592A3" stroke-width="1.5" stroke-linecap="round" stroke-linejoin="round"/>
<path d="M17.7676 9.67876L12.6885 4.59961" stroke="#8592A3" stroke-width="1.5" stroke-linecap="round" stroke-linejoin="round"/>
<path d="M5.23242 9.67876L10.3116 4.59961" stroke="#8592A3" stroke-width="1.5" stroke-linecap="round" stroke-linejoin="round"/>
</svg>
