<svg width="22" height="26" viewBox="0 0 22 26" fill="none" xmlns="http://www.w3.org/2000/svg">
<path d="M8.37277 2.62031L7.43973 4.0625H14.5603L13.6272 2.62031C13.5536 2.50859 13.4308 2.4375 13.2982 2.4375H8.69688C8.56429 2.4375 8.44152 2.50352 8.36786 2.62031H8.37277ZM15.5915 1.26953L17.3938 4.0625H18.0714H20.4286H20.8214C21.4746 4.0625 22 4.60586 22 5.28125C22 5.95664 21.4746 6.5 20.8214 6.5H20.4286V21.9375C20.4286 24.182 18.6705 26 16.5 26H5.5C3.32946 26 1.57143 24.182 1.57143 21.9375V6.5H1.17857C0.525446 6.5 0 5.95664 0 5.28125C0 4.60586 0.525446 4.0625 1.17857 4.0625H1.57143H3.92857H4.60625L6.40848 1.26445C6.9192 0.477344 7.77857 0 8.69688 0H13.2982C14.2165 0 15.0759 0.477344 15.5866 1.26445L15.5915 1.26953ZM3.92857 6.5V21.9375C3.92857 22.8363 4.6308 23.5625 5.5 23.5625H16.5C17.3692 23.5625 18.0714 22.8363 18.0714 21.9375V6.5H3.92857ZM7.85714 9.75V20.3125C7.85714 20.7594 7.50357 21.125 7.07143 21.125C6.63929 21.125 6.28571 20.7594 6.28571 20.3125V9.75C6.28571 9.30313 6.63929 8.9375 7.07143 8.9375C7.50357 8.9375 7.85714 9.30313 7.85714 9.75ZM11.7857 9.75V20.3125C11.7857 20.7594 11.4321 21.125 11 21.125C10.5679 21.125 10.2143 20.7594 10.2143 20.3125V9.75C10.2143 9.30313 10.5679 8.9375 11 8.9375C11.4321 8.9375 11.7857 9.30313 11.7857 9.75ZM15.7143 9.75V20.3125C15.7143 20.7594 15.3607 21.125 14.9286 21.125C14.4964 21.125 14.1429 20.7594 14.1429 20.3125V9.75C14.1429 9.30313 14.4964 8.9375 14.9286 8.9375C15.3607 8.9375 15.7143 9.30313 15.7143 9.75Z" fill="#697A8D"/>
</svg>
