<svg width="25" height="20" viewBox="0 0 25 20" fill="none" xmlns="http://www.w3.org/2000/svg">
<path d="M12.4978 2.14286C9.66822 2.14286 7.34203 3.46429 5.55833 5.16518C3.88747 6.76339 2.73305 8.66071 2.14283 10C2.73305 11.3393 3.88747 13.2366 5.55399 14.8348C7.34203 16.5357 9.66822 17.8571 12.4978 17.8571C15.3274 17.8571 17.6536 16.5357 19.4373 14.8348C21.1082 13.2366 22.2626 11.3393 22.8528 10C22.2626 8.66071 21.1082 6.76339 19.4417 5.16518C17.6536 3.46429 15.3274 2.14286 12.4978 2.14286ZM4.13918 3.59821C6.18327 1.64286 8.99119 0 12.4978 0C16.0045 0 18.8124 1.64286 20.8565 3.59821C22.8876 5.54018 24.2459 7.85714 24.8926 9.45089C25.0358 9.80357 25.0358 10.1964 24.8926 10.5491C24.2459 12.1429 22.8876 14.4643 20.8565 16.4018C18.8124 18.3571 16.0045 20 12.4978 20C8.99119 20 6.18327 18.3571 4.13918 16.4018C2.10811 14.4643 0.749718 12.1429 0.107413 10.5491C-0.0358042 10.1964 -0.0358042 9.80357 0.107413 9.45089C0.749718 7.85714 2.10811 5.53571 4.13918 3.59821ZM12.4978 13.5714C14.4161 13.5714 15.9698 11.9732 15.9698 10C15.9698 8.02679 14.4161 6.42857 12.4978 6.42857C12.4675 6.42857 12.4414 6.42857 12.411 6.42857C12.4675 6.65625 12.4978 6.89732 12.4978 7.14286C12.4978 8.71875 11.2523 10 9.72029 10C9.4816 10 9.24724 9.96875 9.02591 9.91071C9.02591 9.94196 9.02591 9.96875 9.02591 10C9.02591 11.9732 10.5796 13.5714 12.4978 13.5714ZM12.4978 4.28571C13.9711 4.28571 15.3841 4.88775 16.4259 5.95939C17.4676 7.03103 18.0529 8.48448 18.0529 10C18.0529 11.5155 17.4676 12.969 16.4259 14.0406C15.3841 15.1122 13.9711 15.7143 12.4978 15.7143C11.0245 15.7143 9.61158 15.1122 8.5698 14.0406C7.52802 12.969 6.94276 11.5155 6.94276 10C6.94276 8.48448 7.52802 7.03103 8.5698 5.95939C9.61158 4.88775 11.0245 4.28571 12.4978 4.28571Z" fill="#7F8D9E"/>
</svg>
