<svg width="17" height="17" viewBox="0 0 17 17" fill="none" xmlns="http://www.w3.org/2000/svg">
<path fill-rule="evenodd" clip-rule="evenodd" d="M6.4096 3.25406C7.80953 3.59222 8.86898 4.67236 9.10824 6.00589C9.13571 6.15832 9.27682 6.26636 9.43685 6.26636C9.4552 6.26636 9.47371 6.26499 9.49247 6.26197C9.67429 6.23338 9.7969 6.07237 9.76635 5.90244C9.4833 4.32615 8.23119 3.04925 6.57614 2.64968C6.39761 2.60647 6.21573 2.70685 6.16976 2.87395C6.12394 3.04067 6.23122 3.21099 6.4096 3.25406Z" fill="#8592A3"/>
<path fill-rule="evenodd" clip-rule="evenodd" d="M11.1633 12.5673C10.9248 12.3276 10.7933 12.0089 10.7933 11.67C10.7933 11.6637 10.7933 11.6573 10.7934 11.6509C10.7991 11.2641 10.7775 10.834 10.5045 10.5599C10.1857 10.2397 9.67555 10.2315 9.29773 10.4792C8.45523 11.0315 7.44964 11.3529 6.37057 11.3529C3.40938 11.3529 1.00018 8.93368 1.00018 5.96015C1.00018 2.98662 3.40938 0.567383 6.37057 0.567383C9.33176 0.567383 11.741 2.98662 11.741 5.96015C11.741 7.04621 11.4194 8.05801 10.8671 8.90524C10.6216 9.2817 10.6299 9.78851 10.947 10.1069C11.2221 10.3831 11.6565 10.4043 12.0463 10.4011C12.0498 10.4011 12.0533 10.4011 12.0568 10.4011C12.3944 10.4011 12.7118 10.5331 12.9503 10.7728L16.1093 13.945C16.348 14.1847 16.4795 14.5032 16.4795 14.8422C16.4795 15.1811 16.348 15.4998 16.1093 15.7395C15.8631 15.9869 15.5395 16.1104 15.2158 16.1104C14.8923 16.1104 14.5687 15.9869 14.3223 15.7395L11.1633 12.5673ZM6.3701 1.20166C3.75734 1.20166 1.63156 3.33625 1.63156 5.95994C1.63156 8.58359 3.75734 10.7182 6.3701 10.7182C8.9829 10.7182 11.1086 8.58359 11.1086 5.95994C11.1086 3.33625 8.9829 1.20166 6.3701 1.20166ZM11.6097 12.1183L14.7688 15.2904C15.0152 15.5379 15.416 15.5377 15.6624 15.2904C15.7816 15.1706 15.8473 15.0112 15.8473 14.8418C15.8473 14.6724 15.7816 14.5131 15.6624 14.3932L12.5034 11.221C12.3841 11.1012 12.2254 11.0352 12.0566 11.0352C11.8877 11.0352 11.7291 11.1012 11.6097 11.221C11.4904 11.3409 11.4248 11.5002 11.4248 11.6696C11.4248 11.8391 11.4904 11.9984 11.6097 12.1183Z" fill="#8592A3"/>
<path d="M11.1633 12.5673L10.809 12.9201L10.8089 12.9199L11.1633 12.5673ZM12.9503 10.7728L12.596 11.1256L12.5958 11.1255L12.9503 10.7728ZM16.1093 13.945L15.755 14.2978L16.1093 13.945ZM16.1093 15.7395L15.7549 15.3868L15.755 15.3866L16.1093 15.7395ZM14.3223 15.7395L14.6766 15.3866L14.3223 15.7395ZM11.6097 12.1183L11.2555 12.4711L11.6097 12.1183ZM14.7688 15.2904L14.4145 15.6433L14.7688 15.2904ZM15.6624 15.2904L16.017 15.643L16.0166 15.6434L15.6624 15.2904ZM15.6624 14.3932L16.0167 14.0404L16.017 14.0407L15.6624 14.3932ZM12.5034 11.221L12.8577 10.8682L12.5034 11.221ZM12.0463 10.4011L12.0423 9.90113L12.0463 10.4011ZM10.8671 8.90524L10.4482 8.63217L10.8671 8.90524ZM9.29773 10.4792L9.57186 10.8973L9.29773 10.4792ZM10.8089 12.9199C10.477 12.5864 10.2933 12.1409 10.2933 11.67H11.2933C11.2933 11.8769 11.3726 12.0687 11.5177 12.2146L10.8089 12.9199ZM10.2933 11.67C10.2933 11.6612 10.2934 11.6524 10.2935 11.6436L11.2934 11.6583C11.2933 11.6622 11.2933 11.6661 11.2933 11.67H10.2933ZM9.57186 10.8973C8.65077 11.5012 7.55042 11.8529 6.37057 11.8529V10.8529C7.34886 10.8529 8.25968 10.5618 9.02361 10.061L9.57186 10.8973ZM6.37057 11.8529C3.13128 11.8529 0.50018 9.20786 0.50018 5.96015H1.50018C1.50018 8.6595 3.68748 10.8529 6.37057 10.8529V11.8529ZM0.50018 5.96015C0.50018 2.71244 3.13128 0.0673828 6.37057 0.0673828V1.06738C3.68748 1.06738 1.50018 3.2608 1.50018 5.96015H0.50018ZM6.37057 0.0673828C9.60986 0.0673828 12.241 2.71244 12.241 5.96015H11.241C11.241 3.2608 9.05366 1.06738 6.37057 1.06738V0.0673828ZM12.241 5.96015C12.241 7.1463 11.8895 8.2525 11.2859 9.1783L10.4482 8.63217C10.9493 7.86351 11.241 6.94612 11.241 5.96015H12.241ZM12.0423 9.90113C12.0471 9.90109 12.0519 9.90107 12.0568 9.90107V10.9011C12.0546 10.9011 12.0525 10.9011 12.0504 10.9011L12.0423 9.90113ZM12.0568 9.90107C12.5276 9.90107 12.9725 10.0863 13.3047 10.4201L12.5958 11.1255C12.451 10.9799 12.2611 10.9011 12.0568 10.9011V9.90107ZM13.3046 10.42L16.4636 13.5922L15.755 14.2978L12.596 11.1256L13.3046 10.42ZM16.4636 13.5922C16.7957 13.9257 16.9795 14.3712 16.9795 14.8422H15.9795C15.9795 14.6352 15.9002 14.4437 15.755 14.2978L16.4636 13.5922ZM16.9795 14.8422C16.9795 15.3131 16.7958 15.7587 16.4636 16.0923L15.755 15.3866C15.9002 15.2408 15.9795 15.0491 15.9795 14.8422H16.9795ZM16.4637 16.0921C16.1196 16.4379 15.6667 16.6104 15.2158 16.6104V15.6104C15.4124 15.6104 15.6065 15.5358 15.7549 15.3868L16.4637 16.0921ZM15.2158 16.6104C14.765 16.6104 14.3122 16.4379 13.968 16.0923L14.6766 15.3866C14.8252 15.5359 15.0196 15.6104 15.2158 15.6104V16.6104ZM13.968 16.0923L10.809 12.9201L11.5176 12.2145L14.6766 15.3866L13.968 16.0923ZM6.3701 1.70166C4.03543 1.70166 2.13156 3.61043 2.13156 5.95994H1.13156C1.13156 3.06206 3.47924 0.70166 6.3701 0.70166V1.70166ZM2.13156 5.95994C2.13156 8.30941 4.03544 10.2182 6.3701 10.2182V11.2182C3.47923 11.2182 1.13156 8.85777 1.13156 5.95994H2.13156ZM6.3701 10.2182C8.7048 10.2182 10.6086 8.30941 10.6086 5.95994H11.6086C11.6086 8.85777 9.26101 11.2182 6.3701 11.2182V10.2182ZM10.6086 5.95994C10.6086 3.61043 8.7048 1.70166 6.3701 1.70166V0.70166C9.261 0.70166 11.6086 3.06207 11.6086 5.95994H10.6086ZM11.964 11.7654L15.1231 14.9376L14.4145 15.6433L11.2555 12.4711L11.964 11.7654ZM15.1231 14.9376C15.1739 14.9886 15.2571 14.9888 15.3083 14.9375L16.0166 15.6434C15.575 16.0865 14.8565 16.0871 14.4145 15.6433L15.1231 14.9376ZM15.3078 14.9379C15.3338 14.9119 15.3473 14.8793 15.3473 14.8418H16.3473C16.3473 15.1432 16.2294 15.4293 16.017 15.643L15.3078 14.9379ZM15.3473 14.8418C15.3473 14.8044 15.3338 14.7718 15.3078 14.7457L16.017 14.0407C16.2294 14.2543 16.3473 14.5405 16.3473 14.8418H15.3473ZM15.3081 14.746L12.1491 11.5738L12.8577 10.8682L16.0167 14.0404L15.3081 14.746ZM12.1491 11.5738C12.1233 11.5479 12.092 11.5352 12.0566 11.5352V10.5352C12.3587 10.5352 12.6448 10.6544 12.8577 10.8682L12.1491 11.5738ZM12.0566 11.5352C12.021 11.5352 11.9898 11.548 11.964 11.5738L11.2555 10.8682C11.4684 10.6544 11.7544 10.5352 12.0566 10.5352V11.5352ZM11.964 11.5738C11.9385 11.5995 11.9248 11.6318 11.9248 11.6696H10.9248C10.9248 11.3686 11.0423 11.0822 11.2555 10.8682L11.964 11.5738ZM11.9248 11.6696C11.9248 11.7075 11.9385 11.7398 11.964 11.7654L11.2555 12.4711C11.0423 12.2571 10.9248 11.9707 10.9248 11.6696H11.9248ZM11.3012 9.75405C11.347 9.8 11.4218 9.84176 11.5543 9.86902C11.6908 9.89708 11.8518 9.90267 12.0423 9.90113L12.0504 10.9011C11.851 10.9027 11.5999 10.8993 11.3529 10.8485C11.1021 10.7969 10.8221 10.69 10.5928 10.4598L11.3012 9.75405ZM11.2859 9.1783C11.1446 9.39505 11.1807 9.63307 11.3012 9.75405L10.5928 10.4598C10.079 9.94395 10.0987 9.16835 10.4482 8.63217L11.2859 9.1783ZM10.1502 10.9127C10.0293 10.7913 9.78972 10.7545 9.57186 10.8973L9.02361 10.061C9.56139 9.70849 10.3421 9.6882 10.8588 10.207L10.1502 10.9127ZM10.2935 11.6436C10.2962 11.4563 10.291 11.2974 10.2636 11.1632C10.2369 11.0326 10.1957 10.9584 10.1502 10.9127L10.8588 10.207C11.0863 10.4355 11.1924 10.7134 11.2434 10.9631C11.2936 11.2091 11.2963 11.4587 11.2934 11.6583L10.2935 11.6436Z" fill="#8592A3"/>
</svg>
